HIERARCHY
ROOT joint_0
{
	OFFSET 0.000000 0.000000 0.000000
	CHANNELS 6 Xposition Yposition Zposition Zrotation Yrotation Xrotation 
	JOINT joint_1
	{
		OFFSET 14.113007 -2.961990 123.953979
		CHANNELS 3 Zrotation Yrotation Xrotation
		JOINT joint_2
		{
			OFFSET 0.764000 -2.434006 113.871948
			CHANNELS 3 Zrotation Yrotation Xrotation
			JOINT joint_3
			{
				OFFSET 0.186996 -2.169998 113.753052
				CHANNELS 3 Zrotation Yrotation Xrotation
				JOINT joint_4
				{
					OFFSET 16.096001 -2.720001 160.853027
					CHANNELS 3 Zrotation Yrotation Xrotation
					JOINT joint_5
					{
						OFFSET 34.392006 -0.188995 92.567017
						CHANNELS 3 Zrotation Yrotation Xrotation
						End Site
						{
							OFFSET 0.000000 0.000000 0.000000
						}
					}
				}
				JOINT joint_6
				{
					OFFSET 9.183998 -36.684006 89.597046
					CHANNELS 3 Zrotation Yrotation Xrotation
					JOINT joint_7
					{
						OFFSET 0.486000 -164.365997 -28.984009
						CHANNELS 3 Zrotation Yrotation Xrotation
						JOINT joint_8
						{
							OFFSET 38.899002 -34.967010 -291.651978
							CHANNELS 3 Zrotation Yrotation Xrotation
							JOINT joint_9
							{
								OFFSET 41.714005 -45.890991 -258.857056
								CHANNELS 3 Zrotation Yrotation Xrotation
								End Site
								{
									OFFSET 0.000000 0.000000 0.000000
								}
							}
						}
					}
				}
				JOINT joint_10
				{
					OFFSET 8.867004 33.650002 90.817993
					CHANNELS 3 Zrotation Yrotation Xrotation
					JOINT joint_11
					{
						OFFSET 0.018997 164.299999 -29.368042
						CHANNELS 3 Zrotation Yrotation Xrotation
						JOINT joint_12
						{
							OFFSET 29.440994 30.887997 -293.216919
							CHANNELS 3 Zrotation Yrotation Xrotation
							JOINT joint_13
							{
								OFFSET 46.174011 54.490005 -256.422058
								CHANNELS 3 Zrotation Yrotation Xrotation
								End Site
								{
									OFFSET 0.000000 0.000000 0.000000
								}
							}
						}
					}
				}
			}
		}
	}
	JOINT joint_14
	{
		OFFSET -2.264000 -89.466995 -116.150024
		CHANNELS 3 Zrotation Yrotation Xrotation
		JOINT joint_15
		{
			OFFSET -16.400993 -17.452988 -493.781982
			CHANNELS 3 Zrotation Yrotation Xrotation
			JOINT joint_16
			{
				OFFSET -50.497004 -13.404022 -424.754013
				CHANNELS 3 Zrotation Yrotation Xrotation
				JOINT joint_17
				{
					OFFSET 198.546007 -19.341003 -89.309000
					CHANNELS 3 Zrotation Yrotation Xrotation
					End Site
					{
						OFFSET 0.000000 0.000000 0.000000
					}
				}
			}
		}
	}
	JOINT joint_18
	{
		OFFSET -0.867996 96.016006 -110.817993
		CHANNELS 3 Zrotation Yrotation Xrotation
		JOINT joint_19
		{
			OFFSET -10.130997 24.658998 -493.645020
			CHANNELS 3 Zrotation Yrotation Xrotation
			JOINT joint_20
			{
				OFFSET -48.871004 19.434999 -424.714005
				CHANNELS 3 Zrotation Yrotation Xrotation
				JOINT joint_21
				{
					OFFSET 195.579996 24.926001 -94.327003
					CHANNELS 3 Zrotation Yrotation Xrotation
					End Site
					{
						OFFSET 0.000000 0.000000 0.000000
					}
				}
			}
		}
	}
}
MOTION
Frames: 13
Frame Time: 0.016667
206.916000 -142.082000 1163.644040 2.178148 5.977900 -1.096816 0.108670 0.422846 0.831832 0.100821 -0.093306 -0.173094 0.104664 0.102810 0.137624 -0.181421 2.610567 0.458878 0.000000 0.000000 0.000000 3.633360 0.951034 -2.003557 -0.154794 1.622339 -2.217055 1.882515 -8.221511 3.844780 0.000000 0.000000 0.000000 -1.316558 2.001585 4.306654 -0.668056 2.205205 5.927544 -3.193600 -8.566776 -8.320119 0.000000 0.000000 0.000000 2.173956 -4.028050 1.440097 1.910969 4.180651 0.495229 1.906562 3.008771 1.143373 0.000000 0.000000 0.000000 -3.869396 -4.414016 -0.836277 -3.425730 4.628679 -1.695103 -3.605196 1.675964 -1.921520 0.000000 0.000000 0.000000 
211.845990 -142.547000 1165.756960 1.943078 5.891827 -1.062648 0.197454 0.748727 0.612666 0.185303 -0.133471 -0.113210 0.191417 0.164790 0.092072 -0.181682 3.107537 0.454105 0.000000 0.000000 0.000000 4.183896 0.443160 -2.138374 -0.159095 1.213560 -2.470462 1.842768 -7.622770 4.241994 0.000000 0.000000 0.000000 -2.086414 1.726077 4.813348 -0.661079 2.082075 6.544221 -3.446978 -9.277757 -9.434740 0.000000 0.000000 0.000000 2.366821 -4.327845 1.249597 2.033720 5.339664 0.777226 2.104573 3.209488 1.249415 0.000000 0.000000 0.000000 -3.829429 -5.746688 -0.639155 -3.158620 7.920205 -2.308654 -3.646589 1.576975 -1.920473 0.000000 0.000000 0.000000 
216.621000 -142.912990 1167.993040 1.711759 5.753089 -1.054643 0.294766 1.089956 0.467425 0.283120 -0.170769 -0.085299 0.291611 0.218693 0.045360 -0.183784 3.706044 0.452197 0.000000 0.000000 0.000000 4.667831 -0.099181 -2.155634 -0.181647 0.761284 -2.889942 1.791401 -6.851086 4.730916 0.000000 0.000000 0.000000 -2.866212 1.363229 5.209125 -0.613890 1.876319 7.223599 -3.639463 -9.703869 -10.611856 0.000000 0.000000 0.000000 2.595377 -4.631070 1.051416 2.177668 6.583301 1.106866 2.336591 3.459829 1.374402 0.000000 0.000000 0.000000 -3.796176 -7.426479 -0.342930 -2.867534 11.911546 -3.052308 -3.767738 1.712573 -1.980446 0.000000 0.000000 0.000000 
221.330000 -143.238010 1169.823000 1.616970 5.629446 -0.980872 0.344837 1.417930 0.269434 0.347002 -0.173815 0.005446 0.357473 0.268527 0.026151 -0.185361 4.245844 0.447405 0.000000 0.000000 0.000000 5.210685 -0.631024 -2.354462 -0.195171 0.330806 -3.195519 1.725028 -6.036975 5.176094 0.000000 0.000000 0.000000 -3.552546 0.993830 5.577910 -0.550545 1.651821 7.899539 -3.805038 -10.000498 -11.835192 0.000000 0.000000 0.000000 2.810936 -4.875346 0.780252 2.293221 7.731689 1.451913 2.547501 3.590920 1.476767 0.000000 0.000000 0.000000 -3.910719 -9.738055 -0.012745 -2.710513 16.818161 -3.914018 -4.187240 2.027560 -2.191808 0.000000 0.000000 0.000000 
225.921010 -143.675000 1171.218020 1.736517 5.543293 -0.912733 0.314929 1.721021 0.208117 0.359264 -0.125158 0.077027 0.369803 0.294715 0.044174 -0.174984 4.689835 0.409729 0.000000 0.000000 0.000000 5.879760 -1.150241 -2.923464 -0.174736 -0.065965 -3.177845 1.613925 -5.087055 5.461015 0.000000 0.000000 0.000000 -4.116732 0.629239 5.973112 -0.475769 1.416507 8.544681 -3.940397 -10.083196 -13.145984 0.000000 0.000000 0.000000 3.021625 -5.080289 0.531230 2.371862 8.781774 1.797488 2.722965 3.593629 1.548462 0.000000 0.000000 0.000000 -4.229886 -13.011483 0.533352 -2.804602 23.045509 -5.022409 -5.178215 2.984106 -2.722040 0.000000 0.000000 0.000000 
230.445010 -144.071000 1172.207030 1.830353 5.390215 -1.021531 0.272909 2.182732 0.543359 0.406973 -0.133500 -0.009914 0.420135 0.315836 0.087413 -0.164243 5.079021 0.369299 0.000000 0.000000 0.000000 6.608364 -1.654758 -3.682130 -0.150606 -0.434785 -3.055376 1.487897 -4.094006 5.721092 0.000000 0.000000 0.000000 -4.591135 0.252029 6.337185 -0.389075 1.156870 9.181879 -4.053293 -10.021812 -14.519168 0.000000 0.000000 0.000000 3.280121 -5.163022 0.495406 2.466974 9.720552 2.106822 2.897510 3.570120 1.614785 0.000000 0.000000 0.000000 -4.489580 -16.724156 1.359765 -3.053246 29.822753 -6.210488 -6.708878 4.909813 -3.572677 0.000000 0.000000 0.000000 
235.149000 -144.017000 1172.348020 1.737411 5.142803 -1.253004 0.251834 2.866211 1.082320 0.536992 -0.242038 -0.167236 0.561743 0.381876 0.151134 -0.185235 5.373452 0.410880 0.000000 0.000000 0.000000 7.320395 -2.090666 -4.403775 -0.167674 -0.730367 -3.148215 1.436365 -3.480178 6.172167 0.000000 0.000000 0.000000 -4.950248 -0.096547 6.611371 -0.305204 0.907755 9.784897 -4.189392 -10.213599 -15.816472 0.000000 0.000000 0.000000 3.534579 -4.988871 0.625088 2.566757 10.374573 2.337757 3.040178 3.439695 1.655464 0.000000 0.000000 0.000000 -4.449891 -20.143405 2.110370 -3.284758 36.004763 -7.061458 -8.443156 7.018670 -4.486923 0.000000 0.000000 0.000000 
239.944000 -143.353000 1171.432980 1.573673 4.862581 -1.485038 0.196412 3.687762 1.612373 0.713853 -0.386368 -0.291880 0.760919 0.526074 0.243665 -0.257476 5.547523 0.586192 0.000000 0.000000 0.000000 8.096743 -2.398699 -5.122832 -0.245622 -0.875251 -3.523620 1.514925 -3.534914 6.937751 0.000000 0.000000 0.000000 -5.215181 -0.405076 6.847283 -0.233258 0.687874 10.270698 -4.366295 -10.842274 -16.982716 0.000000 0.000000 0.000000 3.695464 -4.550800 0.783067 2.607976 10.655753 2.510528 3.086615 3.094869 1.632605 0.000000 0.000000 0.000000 -4.124544 -23.325502 2.518795 -3.470976 41.768035 -7.458581 -10.294959 8.869394 -5.364762 0.000000 0.000000 0.000000 
244.919010 -142.239000 1169.668950 1.334284 4.542240 -1.766892 0.103596 4.618785 2.224370 0.947054 -0.560059 -0.432658 1.031785 0.705090 0.357413 -0.361538 5.614102 0.842399 0.000000 0.000000 0.000000 8.846675 -2.628839 -5.830464 -0.372363 -0.936686 -4.066997 1.657651 -3.993734 7.851518 0.000000 0.000000 0.000000 -5.360063 -0.688074 7.013277 -0.167256 0.477221 10.689803 -4.564008 -11.720401 -18.055582 0.000000 0.000000 0.000000 3.787470 -3.902014 1.024892 2.636278 10.666524 2.610091 3.085890 2.594390 1.574300 0.000000 0.000000 0.000000 -3.534772 -26.390557 2.713151 -3.597898 47.208945 -7.454081 -12.218509 10.523893 -6.188678 0.000000 0.000000 0.000000 
250.582000 -140.746990 1167.239990 0.957366 4.191248 -2.122854 0.034079 5.513088 2.906386 1.235638 -0.748251 -0.597234 1.372949 0.863611 0.467033 -0.469890 5.597600 1.105241 0.000000 0.000000 0.000000 9.236961 -2.903501 -6.227471 -0.524768 -1.105781 -4.817932 1.782500 -4.422680 8.690073 0.000000 0.000000 0.000000 -5.299247 -0.941683 6.927422 -0.108223 0.251275 11.204030 -4.775491 -12.685841 -19.022294 0.000000 0.000000 0.000000 3.837790 -3.107132 1.385610 2.713090 10.524159 2.588360 3.107969 2.030627 1.521016 0.000000 0.000000 0.000000 -2.748488 -29.052742 2.817568 -3.574498 51.636973 -7.053408 -13.673772 11.214633 -6.688565 0.000000 0.000000 0.000000 
257.140990 -138.867000 1163.944950 0.523382 3.834730 -2.524441 -0.016918 6.216280 3.613951 1.520715 -0.896583 -0.758988 1.716638 1.005228 0.574440 -0.568585 5.492075 1.338862 0.000000 0.000000 0.000000 9.130219 -3.346957 -6.157297 -0.702330 -1.535642 -5.916381 1.878601 -4.560366 9.612207 0.000000 0.000000 0.000000 -4.947020 -1.167657 6.506799 -0.056808 -0.011562 11.931191 -5.030033 -13.774160 -20.033281 0.000000 0.000000 0.000000 3.788572 -2.110719 1.865762 2.816646 10.119102 2.387040 3.125801 1.404851 1.461266 0.000000 0.000000 0.000000 -1.833244 -31.342057 2.819526 -3.356829 55.187454 -6.254182 -14.208729 10.052688 -6.630162 0.000000 0.000000 0.000000 
264.389010 -136.608000 1159.984010 0.109842 3.515857 -2.919244 -0.054814 6.737167 4.294476 1.786696 -0.993813 -0.901222 2.040688 1.139772 0.683763 -0.668872 5.308522 1.575843 0.000000 0.000000 0.000000 8.663884 -3.866512 -5.734474 -0.883678 -2.110400 -7.236462 1.968641 -4.613250 10.475216 0.000000 0.000000 0.000000 -4.394818 -1.365544 5.819124 -0.031441 -0.295512 12.762792 -5.312566 -14.932873 -20.949498 0.000000 0.000000 0.000000 3.637589 -1.004902 2.356620 2.921050 9.537726 2.096177 3.139417 0.707868 1.393695 0.000000 0.000000 0.000000 -0.941448 -33.407692 2.704511 -3.099066 57.982958 -5.272482 -14.150901 7.703541 -6.247283 0.000000 0.000000 0.000000 
272.207000 -134.071000 1156.137940 -0.309274 3.299419 -3.259266 0.003625 7.107722 4.871284 2.061756 -1.064996 -1.023867 2.361946 1.229388 0.781635 -0.779772 5.106200 1.841935 0.000000 0.000000 0.000000 7.943402 -4.251350 -5.081669 -0.988641 -2.611716 -8.425149 2.041773 -4.866131 10.618564 0.000000 0.000000 0.000000 -3.813770 -1.515879 4.918115 -0.074700 -0.565537 13.512733 -5.561637 -15.878302 -21.328904 0.000000 0.000000 0.000000 3.527086 -0.109899 2.697665 3.047104 9.211333 1.897168 3.217365 -0.027127 1.350354 0.000000 0.000000 0.000000 -0.304797 -35.202734 2.615352 -3.012285 59.443796 -4.490076 -14.144806 5.575398 -5.966681 0.000000 0.000000 0.000000 
